<svg width="27" height="27" viewBox="0 0 27 27" fill="none" xmlns="http://www.w3.org/2000/svg">
<path d="M0.773237 19.2857H16.5839C16.6855 19.2858 16.7861 19.2658 16.8799 19.227C16.9738 19.1882 17.059 19.1312 17.1308 19.0594C17.2027 18.9876 17.2596 18.9023 17.2984 18.8085C17.3373 18.7146 17.3572 18.614 17.3571 18.5125V16.2018C17.3572 16.1002 17.3373 15.9997 17.2984 15.9058C17.2596 15.812 17.2027 15.7267 17.1308 15.6549C17.059 15.5831 16.9738 15.5261 16.8799 15.4873C16.7861 15.4484 16.6855 15.4285 16.5839 15.4286H0.773237C0.671672 15.4285 0.571087 15.4484 0.477238 15.4873C0.383389 15.5261 0.298117 15.5831 0.226299 15.6549C0.154482 15.7267 0.0975287 15.812 0.0586979 15.9058C0.0198672 15.9997 -7.90197e-05 16.1002 2.35259e-07 16.2018V18.5125C-7.90197e-05 18.614 0.0198672 18.7146 0.0586979 18.8085C0.0975287 18.9023 0.154482 18.9876 0.226299 19.0594C0.298117 19.1312 0.383389 19.1882 0.477238 19.227C0.571087 19.2658 0.671672 19.2858 0.773237 19.2857ZM0.773237 3.85714H16.5839C16.6855 3.85722 16.7861 3.83728 16.8799 3.79845C16.9738 3.75961 17.059 3.70266 17.1308 3.63084C17.2027 3.55903 17.2596 3.47375 17.2984 3.3799C17.3373 3.28606 17.3572 3.18547 17.3571 3.08391V0.773237C17.3572 0.671672 17.3373 0.571087 17.2984 0.477238C17.2596 0.383389 17.2027 0.298117 17.1308 0.226299C17.059 0.154482 16.9738 0.0975285 16.8799 0.0586978C16.7861 0.0198671 16.6855 -7.90197e-05 16.5839 2.3526e-07H0.773237C0.671672 -7.90197e-05 0.571087 0.0198671 0.477238 0.0586978C0.383389 0.0975285 0.298117 0.154482 0.226299 0.226299C0.154482 0.298117 0.0975287 0.383389 0.0586979 0.477238C0.0198672 0.571087 -7.90197e-05 0.671672 2.35259e-07 0.773237V3.08391C-7.90197e-05 3.18547 0.0198672 3.28606 0.0586979 3.3799C0.0975287 3.47375 0.154482 3.55903 0.226299 3.63084C0.298117 3.70266 0.383389 3.75961 0.477238 3.79845C0.571087 3.83728 0.671672 3.85722 0.773237 3.85714ZM26.0357 7.71429H0.964286C0.708542 7.71429 0.463272 7.81588 0.282433 7.99672C0.101594 8.17756 2.35259e-07 8.42283 2.35259e-07 8.67857V10.6071C2.35259e-07 10.8629 0.101594 11.1082 0.282433 11.289C0.463272 11.4698 0.708542 11.5714 0.964286 11.5714H26.0357C26.2915 11.5714 26.5367 11.4698 26.7176 11.289C26.8984 11.1082 27 10.8629 27 10.6071V8.67857C27 8.42283 26.8984 8.17756 26.7176 7.99672C26.5367 7.81588 26.2915 7.71429 26.0357 7.71429ZM26.0357 23.1429H0.964286C0.708542 23.1429 0.463272 23.2444 0.282433 23.4253C0.101594 23.6061 2.35259e-07 23.8514 2.35259e-07 24.1071V26.0357C2.35259e-07 26.2915 0.101594 26.5367 0.282433 26.7176C0.463272 26.8984 0.708542 27 0.964286 27H26.0357C26.2915 27 26.5367 26.8984 26.7176 26.7176C26.8984 26.5367 27 26.2915 27 26.0357V24.1071C27 23.8514 26.8984 23.6061 26.7176 23.4253C26.5367 23.2444 26.2915 23.1429 26.0357 23.1429Z" fill="white"/>
</svg>
