<svg width="41" height="43" viewBox="0 0 41 43" fill="none" xmlns="http://www.w3.org/2000/svg">
<path d="M32.2868 12.8685H30.399C31.312 10.3373 32.1999 6.6184 31.0051 3.7018C30.3005 1.98196 28.961 0.758829 27.1311 0.165602C26.7933 0.0555777 26.442 0.000244141 26.0881 0.000244141C23.7068 0.000244141 21.552 2.3249 18.4032 8.29256C16.9883 10.9762 14.9519 13.2359 13.5177 14.4545C12.9091 14.9718 12.4226 15.4994 12.0282 16.0187C10.9409 14.4024 9.09555 13.3376 7.00574 13.3376C3.66964 13.3376 0.955078 16.0521 0.955078 19.3882V36.9496C0.955078 40.2863 3.66964 43.0002 7.00574 43.0002C9.19721 43.0002 11.1146 41.8247 12.1762 40.0753C13.5994 41.8305 15.7703 42.9558 18.2011 42.9558H33.0145C39.1314 42.9558 40.0444 39.0079 40.0444 36.6549V20.6275C40.045 16.3494 36.5648 12.8685 32.2868 12.8685ZM9.19592 36.9496C9.19592 38.1573 8.21343 39.1398 7.00639 39.1398C5.7987 39.1398 4.81621 38.1573 4.81621 36.9496V19.3882C4.81621 18.1805 5.7987 17.1981 7.00639 17.1981C8.21343 17.1981 9.19592 18.1805 9.19592 19.3882V36.9496ZM36.1846 36.6549C36.1846 38.0839 35.9568 39.0954 33.0151 39.0954H18.2018C16.0528 39.0954 14.304 37.3472 14.304 35.1982V20.6275L14.3091 20.5663L14.2956 20.4531C14.2918 20.3913 14.2274 18.9179 16.0174 17.3969C17.7263 15.944 20.1475 13.2629 21.8178 10.0935C24.4764 5.05555 25.7452 4.07563 26.0894 3.89033C26.7579 4.13997 27.1755 4.53824 27.4322 5.16493C28.2641 7.19554 27.2192 11.0998 25.7574 13.907L24.2885 16.7284H32.2861C34.4358 16.7284 36.1846 18.4772 36.1846 20.6268V36.6549Z" fill="black"/>
</svg>
