<svg width="40" height="40" viewBox="0 0 40 40" fill="none" xmlns="http://www.w3.org/2000/svg">
<g clip-path="url(#clip0_929_2589)">
<path d="M9.30776 13.2436C5.57666 13.2436 2.55176 16.2685 2.55176 19.9997C2.55176 23.7309 5.57666 26.7557 9.30776 26.7557C11.049 26.7557 12.6189 26.0794 13.8163 24.9982L24.211 31.4367C24.0498 32.0154 23.9348 32.6142 23.9348 33.2442C23.9348 36.9753 26.9597 40.0002 30.6909 40.0002C34.422 40.0002 37.4469 36.9753 37.4469 33.2442C37.4469 29.513 34.422 26.4882 30.6909 26.4882C28.9509 26.4882 27.3797 27.1644 26.1823 28.2456L15.7876 21.8071C15.9488 21.2283 16.0638 20.6296 16.0638 19.9997C16.0638 19.3684 15.9501 18.7709 15.7876 18.1922L26.1835 11.7549C27.381 12.8362 28.9522 13.5124 30.6921 13.5124C34.4232 13.5124 37.4482 10.4875 37.4482 6.75641C37.4469 3.02514 34.4232 0.000244141 30.6921 0.000244141C26.961 0.000244141 23.936 3.02514 23.936 6.75624C23.936 7.3862 24.0497 7.98498 24.2122 8.56367L13.8176 15.0022C12.6189 13.9211 11.049 13.2436 9.30776 13.2436ZM13.5226 20.4047C13.3927 21.7521 12.6476 22.9133 11.5564 23.5983C10.9027 24.0082 10.1352 24.2558 9.30776 24.2558C6.96155 24.2558 5.05168 22.3471 5.05168 19.9997C5.05168 17.6522 6.96033 15.7436 9.30776 15.7436C10.1353 15.7436 10.9027 15.9911 11.5564 16.4011C12.6476 17.086 13.3926 18.2473 13.5226 19.5935C13.5351 19.7285 13.5638 19.8598 13.5638 19.9984C13.5638 20.1384 13.5364 20.2696 13.5226 20.4047ZM26.4772 32.8392C26.6072 31.4918 27.3522 30.3305 28.4434 29.6455C29.0971 29.2356 29.8647 28.9881 30.6921 28.9881C33.0383 28.9881 34.9482 30.8968 34.9482 33.2442C34.9482 35.5916 33.0382 37.499 30.6921 37.499C28.3459 37.499 26.436 35.5904 26.436 33.2429C26.436 33.1042 26.4634 32.9742 26.4772 32.8392ZM30.6921 2.50016C33.0383 2.50016 34.9482 4.40882 34.9482 6.75624C34.9482 9.10367 33.0395 11.0124 30.6921 11.0124C29.8646 11.0124 29.0984 10.7649 28.4434 10.3549C27.3522 9.67118 26.6073 8.50873 26.4772 7.1613C26.4647 7.02628 26.436 6.89502 26.436 6.75633C26.436 4.4089 28.3447 2.50016 30.6921 2.50016Z" fill="black"/>
</g>
<defs>
<clipPath id="clip0_929_2589">
<rect width="40" height="40" fill="white"/>
</clipPath>
</defs>
</svg>
