<svg width="202" height="142" viewBox="0 0 202 142" fill="none" xmlns="http://www.w3.org/2000/svg">
<rect x="0.929644" y="1.77254" width="199.873" height="34.3968" stroke="black" stroke-width="1.85929"/>
<rect x="0.929644" y="1.77254" width="32.5375" height="138.517" stroke="black" stroke-width="1.85929"/>
<path d="M1.85938 2.70215H34.3969V37.099H1.85938V2.70215Z" fill="white"/>
<path d="M113.481 18.541C114.644 18.7577 115.6 19.3391 116.349 20.2852C117.098 21.2312 117.472 22.3151 117.472 23.537C117.472 24.6407 117.196 25.6163 116.645 26.4637C116.112 27.2915 115.334 27.9419 114.309 28.4149C113.284 28.8879 112.072 29.1244 110.673 29.1244H101.775V8.48965H110.289C111.688 8.48965 112.89 8.7163 113.895 9.16959C114.92 9.62288 115.689 10.2536 116.201 11.0616C116.733 11.8696 116.999 12.7861 116.999 13.8109C116.999 15.0131 116.674 16.0183 116.024 16.8263C115.393 17.6344 114.546 18.2059 113.481 18.541ZM105.913 17.0037H109.697C110.683 17.0037 111.442 16.7869 111.974 16.3533C112.506 15.9 112.772 15.2595 112.772 14.4317C112.772 13.604 112.506 12.9635 111.974 12.5102C111.442 12.0569 110.683 11.8302 109.697 11.8302H105.913V17.0037ZM110.082 25.7542C111.087 25.7542 111.865 25.5177 112.417 25.0447C112.989 24.5717 113.274 23.9017 113.274 23.0345C113.274 22.1476 112.979 21.4578 112.388 20.9651C111.796 20.4527 110.998 20.1965 109.993 20.1965H105.913V25.7542H110.082Z" fill="black"/>
<path d="M21.3106 85.6194H13.0922L11.7323 89.5513H7.38656L14.8068 68.887H19.6255L27.0457 89.5513H22.6705L21.3106 85.6194ZM20.1872 82.3084L17.2014 73.6761L14.2155 82.3084H20.1872Z" fill="black"/>
</svg>
