<svg width="208" height="141" viewBox="0 0 208 141" fill="none" xmlns="http://www.w3.org/2000/svg">
<rect x="0.913876" y="0.913876" width="205.7" height="47.8201" stroke="black" stroke-width="1.82775"/>
<rect x="0.913876" y="92.2659" width="205.7" height="47.8201" stroke="black" stroke-width="1.82775"/>
<path d="M107.817 29.2214H99.7376L98.4008 33.0865H94.1288L101.423 12.7727H106.16L113.454 33.0865H109.153L107.817 29.2214ZM106.712 25.9665L103.777 17.4807L100.842 25.9665H106.712Z" fill="black"/>
<path d="M108.044 112.948C109.187 113.161 110.127 113.733 110.863 114.663C111.599 115.593 111.967 116.658 111.967 117.859C111.967 118.944 111.696 119.903 111.153 120.737C110.63 121.55 109.865 122.19 108.858 122.655C107.85 123.12 106.659 123.352 105.283 123.352H96.5356V103.067H104.905C106.281 103.067 107.463 103.29 108.451 103.736C109.458 104.181 110.214 104.801 110.718 105.596C111.241 106.39 111.502 107.291 111.502 108.298C111.502 109.48 111.182 110.468 110.543 111.263C109.923 112.057 109.09 112.619 108.044 112.948ZM100.604 111.437H104.324C105.293 111.437 106.039 111.224 106.562 110.798C107.085 110.352 107.346 109.722 107.346 108.909C107.346 108.095 107.085 107.465 106.562 107.02C106.039 106.574 105.293 106.351 104.324 106.351H100.604V111.437ZM104.702 120.039C105.69 120.039 106.455 119.807 106.998 119.342C107.56 118.877 107.84 118.218 107.84 117.365C107.84 116.494 107.55 115.816 106.969 115.331C106.387 114.827 105.603 114.576 104.615 114.576H100.604V120.039H104.702Z" fill="black"/>
</svg>
