<svg width="174" height="131" viewBox="0 0 174 131" fill="none" xmlns="http://www.w3.org/2000/svg">
<rect x="1.09799" y="0.765957" width="170.039" height="36.2545" stroke="black" stroke-width="1.53191"/>
<rect x="-0.762673" y="0.768827" width="129.313" height="40.1951" transform="matrix(0.00428058 0.999991 -0.999993 0.00375671 41.736 1.52861)" stroke="black" stroke-width="1.53191"/>
<rect x="-0.762673" y="0.768827" width="125.622" height="40.1951" transform="matrix(0.00428058 0.999991 -0.999993 0.00375671 173.126 4.40568)" stroke="black" stroke-width="1.53191"/>
<path d="M24.7724 87.507H18.001L16.8806 90.7466H13.3001L19.4138 73.7207H23.384L29.4978 90.7466H25.8929L24.7724 87.507ZM23.8468 84.779L21.3867 77.6666L18.9266 84.779H23.8468Z" fill="black"/>
<path d="M78.1319 19.5369C78.1319 17.8644 78.5054 16.3704 79.2523 15.0551C80.0155 13.7236 81.0466 12.6925 82.3457 11.9617C83.661 11.2148 85.1306 10.8413 86.7544 10.8413C88.6543 10.8413 90.3187 11.3285 91.7477 12.3028C93.1766 13.277 94.1753 14.6248 94.7436 16.3461H90.8221C90.4324 15.5342 89.8803 14.9252 89.1658 14.5193C88.4675 14.1133 87.6556 13.9103 86.73 13.9103C85.7395 13.9103 84.8545 14.1458 84.0751 14.6167C83.3119 15.0714 82.7111 15.7209 82.2726 16.5653C81.8504 17.4097 81.6393 18.4002 81.6393 19.5369C81.6393 20.6574 81.8504 21.6479 82.2726 22.5085C82.7111 23.3529 83.3119 24.0106 84.0751 24.4815C84.8545 24.9361 85.7395 25.1635 86.73 25.1635C87.6556 25.1635 88.4675 24.9605 89.1658 24.5545C89.8803 24.1323 90.4324 23.5153 90.8221 22.7034H94.7436C94.1753 24.4409 93.1766 25.7968 91.7477 26.7711C90.3349 27.7291 88.6705 28.2082 86.7544 28.2082C85.1306 28.2082 83.661 27.8428 82.3457 27.1121C81.0466 26.3651 80.0155 25.334 79.2523 24.0187C78.5054 22.7034 78.1319 21.2095 78.1319 19.5369Z" fill="black"/>
<path d="M156.622 82.0266C157.58 82.2052 158.367 82.6843 158.984 83.4637C159.601 84.2431 159.91 85.1363 159.91 86.143C159.91 87.0524 159.682 87.8562 159.228 88.5544C158.789 89.2364 158.148 89.7723 157.304 90.162C156.459 90.5517 155.46 90.7466 154.308 90.7466H146.976V73.7451H153.991C155.144 73.7451 156.134 73.9318 156.963 74.3053C157.807 74.6788 158.44 75.1984 158.862 75.8642C159.301 76.53 159.52 77.285 159.52 78.1294C159.52 79.12 159.252 79.9481 158.716 80.6139C158.197 81.2797 157.498 81.7506 156.622 82.0266ZM150.386 80.76H153.504C154.316 80.76 154.941 80.5814 155.379 80.2242C155.818 79.8507 156.037 79.3229 156.037 78.6409C156.037 77.9589 155.818 77.4312 155.379 77.0577C154.941 76.6842 154.316 76.4975 153.504 76.4975H150.386V80.76ZM153.82 87.9698C154.649 87.9698 155.29 87.775 155.745 87.3853C156.216 86.9955 156.451 86.4434 156.451 85.729C156.451 84.9982 156.207 84.4299 155.72 84.0239C155.233 83.6017 154.576 83.3906 153.747 83.3906H150.386V87.9698H153.82Z" fill="black"/>
<rect x="1.37793" y="1.03357" width="40.3584" height="37.1722" fill="#FFF5E1"/>
<rect x="132.073" y="1.45007" width="39.829" height="36.7652" fill="#FFF5E1"/>
</svg>
